{
	"asset":{
		"generator":"Khronos glTF Blender I/O v4.4.55",
		"version":"2.0"
	},
	"extensionsUsed":[
		"KHR_materials_sheen",
		"KHR_texture_transform"
	],
	"extensionsRequired":[
		"KHR_texture_transform"
	],
	"scene":0,
	"scenes":[
		{
			"name":"Scene",
			"nodes":[
				14
			]
		}
	],
	"nodes":[
		{
			"mesh":0,
			"name":"BackCushion.002"
		},
		{
			"mesh":1,
			"name":"CouchBase"
		},
		{
			"mesh":2,
			"name":"Cube.001"
		},
		{
			"mesh":3,
			"name":"Cube.002"
		},
		{
			"mesh":4,
			"name":"BackCushion.001"
		},
		{
			"mesh":5,
			"name":"BackCushion"
		},
		{
			"mesh":6,
			"name":"Legs"
		},
		{
			"mesh":7,
			"name":"SeatCushion"
		},
		{
			"mesh":8,
			"name":"SeatCushion.001"
		},
		{
			"mesh":9,
			"name":"SeatCushion.002"
		},
		{
			"mesh":10,
			"name":"SideCushion"
		},
		{
			"mesh":11,
			"name":"SideCushion.001"
		},
		{
			"mesh":12,
			"name":"YellowCushion1"
		},
		{
			"mesh":13,
			"name":"YellowCushion2"
		},
		{
			"children":[
				0,
				1,
				2,
				3,
				4,
				5,
				6,
				7,
				8,
				9,
				10,
				11,
				12,
				13
			],
			"mesh":14,
			"name":"Cube"
		}
	],
	"materials":[
		{
			"doubleSided":true,
			"extensions":{
				"KHR_materials_sheen":{
					"sheenColorFactor":[
						1.0,
						1.0,
						1.0
					],
					"sheenRoughnessFactor":0.5
				}
			},
			"name":"Cloth",
			"normalTexture":{
				"index":0,
				"texCoord":1
			},
			"pbrMetallicRoughness":{
				"baseColorTexture":{
					"extensions":{
						"KHR_texture_transform":{
							"offset":[
								0,
								-10
							],
							"scale":[
								11,
								11
							]
						}
					},
					"index":1
				},
				"metallicFactor":0,
				"metallicRoughnessTexture":{
					"extensions":{
						"KHR_texture_transform":{
							"offset":[
								0,
								-10
							],
							"scale":[
								11,
								11
							]
						}
					},
					"index":2
				}
			}
		},
		{
			"doubleSided":true,
			"extensions":{
				"KHR_materials_sheen":{
					"sheenColorFactor":[
						1.0,
						1.0,
						1.0
					],
					"sheenRoughnessFactor":0.5
				}
			},
			"name":"Cloth",
			"normalTexture":{
				"index":0
			},
			"pbrMetallicRoughness":{
				"baseColorTexture":{
					"extensions":{
						"KHR_texture_transform":{
							"offset":[
								0,
								-10
							],
							"scale":[
								11,
								11
							]
						}
					},
					"index":1
				},
				"metallicFactor":0,
				"metallicRoughnessTexture":{
					"extensions":{
						"KHR_texture_transform":{
							"offset":[
								0,
								-10
							],
							"scale":[
								11,
								11
							]
						}
					},
					"index":2
				}
			}
		},
		{
			"doubleSided":true,
			"name":"StainlessSteel",
			"pbrMetallicRoughness":{
				"baseColorFactor":[
					0.800000011920929,
					0.800000011920929,
					0.8500000238418579,
					1
				],
				"roughnessFactor":0.07000000029802322
			}
		},
		{
			"doubleSided":true,
			"extensions":{
				"KHR_materials_sheen":{
					"sheenColorFactor":[
						1.0,
						1.0,
						1.0
					],
					"sheenRoughnessFactor":0.5
				}
			},
			"name":"WhiteCloth",
			"normalTexture":{
				"index":3
			},
			"pbrMetallicRoughness":{
				"baseColorTexture":{
					"extensions":{
						"KHR_texture_transform":{
							"offset":[
								0,
								-10
							],
							"scale":[
								11,
								11
							]
						}
					},
					"index":4
				},
				"metallicFactor":0,
				"metallicRoughnessTexture":{
					"extensions":{
						"KHR_texture_transform":{
							"offset":[
								0,
								-10
							],
							"scale":[
								11,
								11
							]
						}
					},
					"index":5
				}
			}
		}
	],
	"meshes":[
		{
			"name":"Cube.006",
			"primitives":[
				{
					"attributes":{
						"POSITION":0,
						"NORMAL":1,
						"TEXCOORD_0":2,
						"TEXCOORD_1":3
					},
					"indices":4,
					"material":0
				}
			]
		},
		{
			"name":"Cube.015",
			"primitives":[
				{
					"attributes":{
						"POSITION":5,
						"NORMAL":6,
						"TEXCOORD_0":7
					},
					"indices":8,
					"material":1
				}
			]
		},
		{
			"name":"Cube.014",
			"primitives":[
				{
					"attributes":{
						"POSITION":9,
						"NORMAL":10,
						"TEXCOORD_0":11
					},
					"indices":12,
					"material":1
				}
			]
		},
		{
			"name":"Cube.013",
			"primitives":[
				{
					"attributes":{
						"POSITION":13,
						"NORMAL":14,
						"TEXCOORD_0":15
					},
					"indices":16,
					"material":1
				}
			]
		},
		{
			"name":"Cube.005",
			"primitives":[
				{
					"attributes":{
						"POSITION":17,
						"NORMAL":18,
						"TEXCOORD_0":19,
						"TEXCOORD_1":20
					},
					"indices":4,
					"material":0
				}
			]
		},
		{
			"name":"Cube.007",
			"primitives":[
				{
					"attributes":{
						"POSITION":21,
						"NORMAL":22,
						"TEXCOORD_0":23,
						"TEXCOORD_1":24
					},
					"indices":4,
					"material":0
				}
			]
		},
		{
			"name":"Cube.001",
			"primitives":[
				{
					"attributes":{
						"POSITION":25,
						"NORMAL":26,
						"TEXCOORD_0":27
					},
					"indices":28,
					"material":2
				}
			]
		},
		{
			"name":"Cube.008",
			"primitives":[
				{
					"attributes":{
						"POSITION":29,
						"NORMAL":30,
						"TEXCOORD_0":31,
						"TEXCOORD_1":32
					},
					"indices":33,
					"material":0
				}
			]
		},
		{
			"name":"Cube.009",
			"primitives":[
				{
					"attributes":{
						"POSITION":34,
						"NORMAL":35,
						"TEXCOORD_0":36,
						"TEXCOORD_1":37
					},
					"indices":33,
					"material":0
				}
			]
		},
		{
			"name":"Cube.004",
			"primitives":[
				{
					"attributes":{
						"POSITION":38,
						"NORMAL":39,
						"TEXCOORD_0":40,
						"TEXCOORD_1":41,
						"COLOR_0":42,
						"COLOR_1":43
					},
					"indices":33,
					"material":0
				}
			]
		},
		{
			"name":"Cube.003",
			"primitives":[
				{
					"attributes":{
						"POSITION":44,
						"NORMAL":45,
						"TEXCOORD_0":46,
						"TEXCOORD_1":47
					},
					"indices":48,
					"material":0
				}
			]
		},
		{
			"name":"Cube.012",
			"primitives":[
				{
					"attributes":{
						"POSITION":49,
						"NORMAL":50,
						"TEXCOORD_0":51,
						"TEXCOORD_1":52
					},
					"indices":53,
					"material":0
				}
			]
		},
		{
			"name":"Plane.006",
			"primitives":[
				{
					"attributes":{
						"POSITION":54,
						"NORMAL":55,
						"TEXCOORD_0":56
					},
					"indices":57,
					"material":3
				}
			]
		},
		{
			"name":"Plane",
			"primitives":[
				{
					"attributes":{
						"POSITION":58,
						"NORMAL":59,
						"TEXCOORD_0":60
					},
					"indices":61,
					"material":3
				}
			]
		},
		{
			"name":"Cube.011",
			"primitives":[
				{
					"attributes":{
						"POSITION":62,
						"NORMAL":63,
						"TEXCOORD_0":64
					},
					"indices":65
				}
			]
		}
	],
	"textures":[
		{
			"sampler":0,
			"source":0
		},
		{
			"sampler":0,
			"source":1
		},
		{
			"sampler":0,
			"source":2
		},
		{
			"sampler":0,
			"source":0
		},
		{
			"sampler":0,
			"source":1
		},
		{
			"sampler":0,
			"source":2
		}
	],
	"images":[
		{
			"mimeType":"image/png",
			"name":"BrushFabricStitches08_ALPHA_2K",
			"uri":"BrushFabricStitches08_ALPHA_2K.png"
		},
		{
			"mimeType":"image/jpeg",
			"name":"Fabric_Burlap_005_Base Color",
			"uri":"Fabric_Burlap_005_Base%20Color.jpg"
		},
		{
			"mimeType":"image/png",
			"name":"Fabric_Burlap_005_Roughness",
			"uri":"Fabric_Burlap_005_Roughness.png"
		}
	],
	"accessors":[
		{
			"bufferView":0,
			"componentType":5126,
			"count":93703,
			"max":[
				-0.06385650485754013,
				1.9154200553894043,
				0.3632965087890625
			],
			"min":[
				-0.28449997305870056,
				1.376717448234558,
				-0.36750489473342896
			],
			"type":"VEC3"
		},
		{
			"bufferView":1,
			"componentType":5126,
			"count":93703,
			"type":"VEC3"
		},
		{
			"bufferView":2,
			"componentType":5126,
			"count":93703,
			"type":"VEC2"
		},
		{
			"bufferView":3,
			"componentType":5126,
			"count":93703,
			"type":"VEC2"
		},
		{
			"bufferView":4,
			"componentType":5125,
			"count":146688,
			"type":"SCALAR"
		},
		{
			"bufferView":5,
			"componentType":5126,
			"count":216,
			"max":[
				0.5941644906997681,
				1.261826992034912,
				1.1350961923599243
			],
			"min":[
				-0.31056344509124756,
				1.1952509880065918,
				-1.1196178197860718
			],
			"type":"VEC3"
		},
		{
			"bufferView":6,
			"componentType":5126,
			"count":216,
			"type":"VEC3"
		},
		{
			"bufferView":7,
			"componentType":5126,
			"count":216,
			"type":"VEC2"
		},
		{
			"bufferView":8,
			"componentType":5123,
			"count":900,
			"type":"SCALAR"
		},
		{
			"bufferView":9,
			"componentType":5126,
			"count":508,
			"max":[
				0.4254542589187622,
				1.6833820343017578,
				1.1349760293960571
			],
			"min":[
				-0.310563862323761,
				1.2593666315078735,
				-1.1194980144500732
			],
			"type":"VEC3"
		},
		{
			"bufferView":10,
			"componentType":5126,
			"count":508,
			"type":"VEC3"
		},
		{
			"bufferView":11,
			"componentType":5126,
			"count":508,
			"type":"VEC2"
		},
		{
			"bufferView":12,
			"componentType":5123,
			"count":2172,
			"type":"SCALAR"
		},
		{
			"bufferView":13,
			"componentType":5126,
			"count":670,
			"max":[
				0.5941646099090576,
				1.3301042318344116,
				1.135911226272583
			],
			"min":[
				-0.3057100772857666,
				1.2635282278060913,
				-1.1204326152801514
			],
			"type":"VEC3"
		},
		{
			"bufferView":14,
			"componentType":5126,
			"count":670,
			"type":"VEC3"
		},
		{
			"bufferView":15,
			"componentType":5126,
			"count":670,
			"type":"VEC2"
		},
		{
			"bufferView":16,
			"componentType":5123,
			"count":2124,
			"type":"SCALAR"
		},
		{
			"bufferView":17,
			"componentType":5126,
			"count":93703,
			"max":[
				-0.026353105902671814,
				1.9124846458435059,
				-0.37018904089927673
			],
			"min":[
				-0.2850954532623291,
				1.379812479019165,
				-1.1042333841323853
			],
			"type":"VEC3"
		},
		{
			"bufferView":18,
			"componentType":5126,
			"count":93703,
			"type":"VEC3"
		},
		{
			"bufferView":19,
			"componentType":5126,
			"count":93703,
			"type":"VEC2"
		},
		{
			"bufferView":20,
			"componentType":5126,
			"count":93703,
			"type":"VEC2"
		},
		{
			"bufferView":21,
			"componentType":5126,
			"count":93703,
			"max":[
				-0.05696316063404083,
				1.9153406620025635,
				1.1051126718521118
			],
			"min":[
				-0.28324756026268005,
				1.378486156463623,
				0.3720494210720062
			],
			"type":"VEC3"
		},
		{
			"bufferView":22,
			"componentType":5126,
			"count":93703,
			"type":"VEC3"
		},
		{
			"bufferView":23,
			"componentType":5126,
			"count":93703,
			"type":"VEC2"
		},
		{
			"bufferView":24,
			"componentType":5126,
			"count":93703,
			"type":"VEC2"
		},
		{
			"bufferView":25,
			"componentType":5126,
			"count":1192,
			"max":[
				0.5858854651451111,
				1.194400668144226,
				1.13080632686615
			],
			"min":[
				-0.30228495597839355,
				1.0075128078460693,
				-1.1153281927108765
			],
			"type":"VEC3"
		},
		{
			"bufferView":26,
			"componentType":5126,
			"count":1192,
			"type":"VEC3"
		},
		{
			"bufferView":27,
			"componentType":5126,
			"count":1192,
			"type":"VEC2"
		},
		{
			"bufferView":28,
			"componentType":5123,
			"count":3792,
			"type":"SCALAR"
		},
		{
			"bufferView":29,
			"componentType":5126,
			"count":119114,
			"max":[
				0.6182608604431152,
				1.4120153188705444,
				0.35910049080848694
			],
			"min":[
				-0.1813351958990097,
				1.2975916862487793,
				-0.3602772355079651
			],
			"type":"VEC3"
		},
		{
			"bufferView":30,
			"componentType":5126,
			"count":119114,
			"type":"VEC3"
		},
		{
			"bufferView":31,
			"componentType":5126,
			"count":119114,
			"type":"VEC2"
		},
		{
			"bufferView":32,
			"componentType":5126,
			"count":119114,
			"type":"VEC2"
		},
		{
			"bufferView":33,
			"componentType":5125,
			"count":182016,
			"type":"SCALAR"
		},
		{
			"bufferView":34,
			"componentType":5126,
			"count":119114,
			"max":[
				0.6107323169708252,
				1.4142080545425415,
				-0.35035061836242676
			],
			"min":[
				-0.16221602261066437,
				1.2955423593521118,
				-1.0819714069366455
			],
			"type":"VEC3"
		},
		{
			"bufferView":35,
			"componentType":5126,
			"count":119114,
			"type":"VEC3"
		},
		{
			"bufferView":36,
			"componentType":5126,
			"count":119114,
			"type":"VEC2"
		},
		{
			"bufferView":37,
			"componentType":5126,
			"count":119114,
			"type":"VEC2"
		},
		{
			"bufferView":38,
			"componentType":5126,
			"count":119114,
			"max":[
				0.6210536956787109,
				1.4120111465454102,
				1.1034643650054932
			],
			"min":[
				-0.1871529221534729,
				1.2977458238601685,
				0.35461553931236267
			],
			"type":"VEC3"
		},
		{
			"bufferView":39,
			"componentType":5126,
			"count":119114,
			"type":"VEC3"
		},
		{
			"bufferView":40,
			"componentType":5126,
			"count":119114,
			"type":"VEC2"
		},
		{
			"bufferView":41,
			"componentType":5126,
			"count":119114,
			"type":"VEC2"
		},
		{
			"bufferView":42,
			"componentType":5121,
			"count":119114,
			"normalized":true,
			"type":"VEC4"
		},
		{
			"bufferView":43,
			"componentType":5123,
			"count":119114,
			"normalized":true,
			"type":"VEC4"
		},
		{
			"bufferView":44,
			"componentType":5126,
			"count":24622,
			"max":[
				0.5345987677574158,
				1.7890814542770386,
				-0.9045892953872681
			],
			"min":[
				-0.06303934752941132,
				1.4006763696670532,
				-1.0837243795394897
			],
			"type":"VEC3"
		},
		{
			"bufferView":45,
			"componentType":5126,
			"count":24622,
			"type":"VEC3"
		},
		{
			"bufferView":46,
			"componentType":5126,
			"count":24622,
			"type":"VEC2"
		},
		{
			"bufferView":47,
			"componentType":5126,
			"count":24622,
			"type":"VEC2"
		},
		{
			"bufferView":48,
			"componentType":5123,
			"count":137472,
			"type":"SCALAR"
		},
		{
			"bufferView":49,
			"componentType":5126,
			"count":24622,
			"max":[
				0.5347743034362793,
				1.7883332967758179,
				1.0868241786956787
			],
			"min":[
				-0.06302665174007416,
				1.4014052152633667,
				0.8969427943229675
			],
			"type":"VEC3"
		},
		{
			"bufferView":50,
			"componentType":5126,
			"count":24622,
			"type":"VEC3"
		},
		{
			"bufferView":51,
			"componentType":5126,
			"count":24622,
			"type":"VEC2"
		},
		{
			"bufferView":52,
			"componentType":5126,
			"count":24622,
			"type":"VEC2"
		},
		{
			"bufferView":53,
			"componentType":5123,
			"count":137472,
			"type":"SCALAR"
		},
		{
			"bufferView":54,
			"componentType":5126,
			"count":62936,
			"max":[
				0.27962157130241394,
				1.7740623950958252,
				-0.6001822352409363
			],
			"min":[
				-0.0754934623837471,
				1.4052401781082153,
				-0.9524999856948853
			],
			"type":"VEC3"
		},
		{
			"bufferView":55,
			"componentType":5126,
			"count":62936,
			"type":"VEC3"
		},
		{
			"bufferView":56,
			"componentType":5126,
			"count":62936,
			"type":"VEC2"
		},
		{
			"bufferView":57,
			"componentType":5123,
			"count":370269,
			"type":"SCALAR"
		},
		{
			"bufferView":58,
			"componentType":5126,
			"count":66880,
			"max":[
				0.20247210562229156,
				1.7740495204925537,
				0.9696398973464966
			],
			"min":[
				-0.08984154462814331,
				1.4066922664642334,
				0.5598767995834351
			],
			"type":"VEC3"
		},
		{
			"bufferView":59,
			"componentType":5126,
			"count":66880,
			"type":"VEC3"
		},
		{
			"bufferView":60,
			"componentType":5126,
			"count":66880,
			"type":"VEC2"
		},
		{
			"bufferView":61,
			"componentType":5125,
			"count":370269,
			"type":"SCALAR"
		},
		{
			"bufferView":62,
			"componentType":5126,
			"count":24,
			"max":[
				5.848607540130615,
				11.081633567810059,
				7.114965438842773
			],
			"min":[
				-8.207101821899414,
				-2.974076271057129,
				-6.940744400024414
			],
			"type":"VEC3"
		},
		{
			"bufferView":63,
			"componentType":5126,
			"count":24,
			"type":"VEC3"
		},
		{
			"bufferView":64,
			"componentType":5126,
			"count":24,
			"type":"VEC2"
		},
		{
			"bufferView":65,
			"componentType":5123,
			"count":36,
			"type":"SCALAR"
		}
	],
	"bufferViews":[
		{
			"buffer":0,
			"byteLength":1124436,
			"byteOffset":0,
			"target":34962
		},
		{
			"buffer":0,
			"byteLength":1124436,
			"byteOffset":1124436,
			"target":34962
		},
		{
			"buffer":0,
			"byteLength":749624,
			"byteOffset":2248872,
			"target":34962
		},
		{
			"buffer":0,
			"byteLength":749624,
			"byteOffset":2998496,
			"target":34962
		},
		{
			"buffer":0,
			"byteLength":586752,
			"byteOffset":3748120,
			"target":34963
		},
		{
			"buffer":0,
			"byteLength":2592,
			"byteOffset":4334872,
			"target":34962
		},
		{
			"buffer":0,
			"byteLength":2592,
			"byteOffset":4337464,
			"target":34962
		},
		{
			"buffer":0,
			"byteLength":1728,
			"byteOffset":4340056,
			"target":34962
		},
		{
			"buffer":0,
			"byteLength":1800,
			"byteOffset":4341784,
			"target":34963
		},
		{
			"buffer":0,
			"byteLength":6096,
			"byteOffset":4343584,
			"target":34962
		},
		{
			"buffer":0,
			"byteLength":6096,
			"byteOffset":4349680,
			"target":34962
		},
		{
			"buffer":0,
			"byteLength":4064,
			"byteOffset":4355776,
			"target":34962
		},
		{
			"buffer":0,
			"byteLength":4344,
			"byteOffset":4359840,
			"target":34963
		},
		{
			"buffer":0,
			"byteLength":8040,
			"byteOffset":4364184,
			"target":34962
		},
		{
			"buffer":0,
			"byteLength":8040,
			"byteOffset":4372224,
			"target":34962
		},
		{
			"buffer":0,
			"byteLength":5360,
			"byteOffset":4380264,
			"target":34962
		},
		{
			"buffer":0,
			"byteLength":4248,
			"byteOffset":4385624,
			"target":34963
		},
		{
			"buffer":0,
			"byteLength":1124436,
			"byteOffset":4389872,
			"target":34962
		},
		{
			"buffer":0,
			"byteLength":1124436,
			"byteOffset":5514308,
			"target":34962
		},
		{
			"buffer":0,
			"byteLength":749624,
			"byteOffset":6638744,
			"target":34962
		},
		{
			"buffer":0,
			"byteLength":749624,
			"byteOffset":7388368,
			"target":34962
		},
		{
			"buffer":0,
			"byteLength":1124436,
			"byteOffset":8137992,
			"target":34962
		},
		{
			"buffer":0,
			"byteLength":1124436,
			"byteOffset":9262428,
			"target":34962
		},
		{
			"buffer":0,
			"byteLength":749624,
			"byteOffset":10386864,
			"target":34962
		},
		{
			"buffer":0,
			"byteLength":749624,
			"byteOffset":11136488,
			"target":34962
		},
		{
			"buffer":0,
			"byteLength":14304,
			"byteOffset":11886112,
			"target":34962
		},
		{
			"buffer":0,
			"byteLength":14304,
			"byteOffset":11900416,
			"target":34962
		},
		{
			"buffer":0,
			"byteLength":9536,
			"byteOffset":11914720,
			"target":34962
		},
		{
			"buffer":0,
			"byteLength":7584,
			"byteOffset":11924256,
			"target":34963
		},
		{
			"buffer":0,
			"byteLength":1429368,
			"byteOffset":11931840,
			"target":34962
		},
		{
			"buffer":0,
			"byteLength":1429368,
			"byteOffset":13361208,
			"target":34962
		},
		{
			"buffer":0,
			"byteLength":952912,
			"byteOffset":14790576,
			"target":34962
		},
		{
			"buffer":0,
			"byteLength":952912,
			"byteOffset":15743488,
			"target":34962
		},
		{
			"buffer":0,
			"byteLength":728064,
			"byteOffset":16696400,
			"target":34963
		},
		{
			"buffer":0,
			"byteLength":1429368,
			"byteOffset":17424464,
			"target":34962
		},
		{
			"buffer":0,
			"byteLength":1429368,
			"byteOffset":18853832,
			"target":34962
		},
		{
			"buffer":0,
			"byteLength":952912,
			"byteOffset":20283200,
			"target":34962
		},
		{
			"buffer":0,
			"byteLength":952912,
			"byteOffset":21236112,
			"target":34962
		},
		{
			"buffer":0,
			"byteLength":1429368,
			"byteOffset":22189024,
			"target":34962
		},
		{
			"buffer":0,
			"byteLength":1429368,
			"byteOffset":23618392,
			"target":34962
		},
		{
			"buffer":0,
			"byteLength":952912,
			"byteOffset":25047760,
			"target":34962
		},
		{
			"buffer":0,
			"byteLength":952912,
			"byteOffset":26000672,
			"target":34962
		},
		{
			"buffer":0,
			"byteLength":476456,
			"byteOffset":26953584,
			"target":34962
		},
		{
			"buffer":0,
			"byteLength":952912,
			"byteOffset":27430040,
			"target":34962
		},
		{
			"buffer":0,
			"byteLength":295464,
			"byteOffset":28382952,
			"target":34962
		},
		{
			"buffer":0,
			"byteLength":295464,
			"byteOffset":28678416,
			"target":34962
		},
		{
			"buffer":0,
			"byteLength":196976,
			"byteOffset":28973880,
			"target":34962
		},
		{
			"buffer":0,
			"byteLength":196976,
			"byteOffset":29170856,
			"target":34962
		},
		{
			"buffer":0,
			"byteLength":274944,
			"byteOffset":29367832,
			"target":34963
		},
		{
			"buffer":0,
			"byteLength":295464,
			"byteOffset":29642776,
			"target":34962
		},
		{
			"buffer":0,
			"byteLength":295464,
			"byteOffset":29938240,
			"target":34962
		},
		{
			"buffer":0,
			"byteLength":196976,
			"byteOffset":30233704,
			"target":34962
		},
		{
			"buffer":0,
			"byteLength":196976,
			"byteOffset":30430680,
			"target":34962
		},
		{
			"buffer":0,
			"byteLength":274944,
			"byteOffset":30627656,
			"target":34963
		},
		{
			"buffer":0,
			"byteLength":755232,
			"byteOffset":30902600,
			"target":34962
		},
		{
			"buffer":0,
			"byteLength":755232,
			"byteOffset":31657832,
			"target":34962
		},
		{
			"buffer":0,
			"byteLength":503488,
			"byteOffset":32413064,
			"target":34962
		},
		{
			"buffer":0,
			"byteLength":740538,
			"byteOffset":32916552,
			"target":34963
		},
		{
			"buffer":0,
			"byteLength":802560,
			"byteOffset":33657092,
			"target":34962
		},
		{
			"buffer":0,
			"byteLength":802560,
			"byteOffset":34459652,
			"target":34962
		},
		{
			"buffer":0,
			"byteLength":535040,
			"byteOffset":35262212,
			"target":34962
		},
		{
			"buffer":0,
			"byteLength":1481076,
			"byteOffset":35797252,
			"target":34963
		},
		{
			"buffer":0,
			"byteLength":288,
			"byteOffset":37278328,
			"target":34962
		},
		{
			"buffer":0,
			"byteLength":288,
			"byteOffset":37278616,
			"target":34962
		},
		{
			"buffer":0,
			"byteLength":192,
			"byteOffset":37278904,
			"target":34962
		},
		{
			"buffer":0,
			"byteLength":72,
			"byteOffset":37279096,
			"target":34963
		}
	],
	"samplers":[
		{
			"magFilter":9729,
			"minFilter":9987
		}
	],
	"buffers":[
		{
			"byteLength":37279168,
			"uri":"sofa1-mod.bin"
		}
	]
}
